# xmcd CD database file
# Copyright (C) 1993-1998 Ti Kan
# 
# Track frame offsets:
#     150
#     23575
#     35517
#     60220
#     76410
#     98987
#     109845
#     136267
#     159487
#     171587
#     194067
#     215090
#     234137
#     255470
# 
# Disc length: 3547 seconds
# 
# Revision: 1
# Processed by: cddbd v1.4b41PL1 Copyright (c) Steve Scherf et al.
# Submitted via: DiscPlay 4.0.4
# 
DISCID=b80dd90e
DTITLE=Pappo s - Blues local
DYEAR=1900
DGENRE=
TTITLE0=Longchamps Boogie
TTITLE1=Mi vieja
TTITLE2=Buscando el tesoro de Borneo
TTITLE3=Saco italiano
TTITLE4=La almeja
TTITLE5=Blues local
TTITLE6=Peque a ala
TTITLE7=Una casa con 10 pinos
TTITLE8=El tropez n
TTITLE9=El hombre oculto
TTITLE10=Dr. Tazo
TTITLE11=Blues del perro
TTITLE12=Dos bajistas
TTITLE13=Nacido bajo un signo malo
EXTD=
EXTT0=
EXTT1=
EXTT2=
EXTT3=
EXTT4=
EXTT5=
EXTT6=
EXTT7=
EXTT8=
EXTT9=
EXTT10=
EXTT11=
EXTT12=
EXTT13=
PLAYORDER=
